<svg id="visual" viewBox="0 0 675 900" width="675" height="900" xmlns="http://www.w3.org/2000/svg" xmlns:xlink="http://www.w3.org/1999/xlink" version="1.1">
<path fill="#f4f4f481" transform='translate(150,0)' d="M660 900L624.3 850C588.7 800 517.3 700 490.2 600C463 500 480 400 504.8 300C529.7 200 562.3 100 578.7 50L595 0L675 0L675 50C675 100 675 200 675 300C675 400 675 500 675 600C675 700 675 800 675 850L675 900Z" ></path>
<path fill="#ccd4e441" transform='translate(50,0)' d="M593 900L602.2 850C611.3 800 629.7 700 643 600C656.3 500 664.7 400 652.5 300C640.3 200 607.7 100 591.3 50L575 0L675 0L675 50C675 100 675 200 675 300C675 400 675 500 675 600C675 700 675 800 675 850L675 900Z" ></path>
</svg>