<svg id="visual" viewBox="0 0 1124 600" width="1124" height="600" xmlns="http://www.w3.org/2000/svg" xmlns:xlink="http://www.w3.org/1999/xlink" version="1.1">
<path d="M0 43L62.5 91.5C125 140 250 237 374.8 231C499.7 225 624.3 116 749.2 117.3C874 118.7 999 230.3 1061.5 286.2L1124 342L1124 601L1061.5 601C999 601 874 601 749.2 601C624.3 601 499.7 601 374.8 601C250 601 125 601 62.5 601L0 601Z" fill="#f4f4f4"></path>
<path d="M0 582L62.5 549C125 516 250 450 374.8 448.3C499.7 446.7 624.3 509.3 749.2 480.2C874 451 999 330 1061.5 269.5L1124 209L1124 601L1061.5 601C999 601 874 601 749.2 601C624.3 601 499.7 601 374.8 601C250 601 125 601 62.5 601L0 601Z" fill="#ccd4e4bd"></path>

</svg>